HIERARCHY
ROOT Model
{
	OFFSET 0 0 0
	CHANNELS 6 Xposition Yposition Zposition Zrotation Xrotation Yrotation
	JOINT Model1
	{
		OFFSET 0 -2.25479 2.99383
		CHANNELS 3 Zrotation Xrotation Yrotation
		JOINT Model2
		{
			OFFSET 12.111 0 0
			CHANNELS 3 Zrotation Xrotation Yrotation
			JOINT Model3
			{
				OFFSET 11.5502 0 0
				CHANNELS 3 Zrotation Xrotation Yrotation
				JOINT Model4
				{
					OFFSET 11.781 0 0
					CHANNELS 3 Zrotation Xrotation Yrotation
					JOINT Model5
					{
						OFFSET 20.0601 0 0
						CHANNELS 3 Zrotation Xrotation Yrotation
						JOINT Model6
						{
							OFFSET 11.1962 0 0
							CHANNELS 3 Zrotation Xrotation Yrotation
							End Site
							{
								OFFSET 0 0 0
							}
						}
					}
					JOINT Model7
					{
						OFFSET 10.8223 0.417534 3.51114
						CHANNELS 3 Zrotation Xrotation Yrotation
						JOINT Model8
						{
							OFFSET -6.07944 0 0
							CHANNELS 3 Zrotation Xrotation Yrotation
							JOINT Model9
							{
								OFFSET -0.277416 10.39 -0.0512447
								CHANNELS 3 Zrotation Xrotation Yrotation
								JOINT Model10
								{
									OFFSET -3.4391 -0.282043 1.86678
									CHANNELS 3 Zrotation Xrotation Yrotation
									JOINT Model11
									{
										OFFSET 13.0269 0 0
										CHANNELS 3 Zrotation Xrotation Yrotation
										JOINT Model12
										{
											OFFSET 10.8866 0 0
											CHANNELS 3 Zrotation Xrotation Yrotation
											JOINT Model13
											{
												OFFSET 16.7317 0 0
												CHANNELS 3 Zrotation Xrotation Yrotation
												JOINT Model14
												{
													OFFSET 11.8292 0 0
													CHANNELS 3 Zrotation Xrotation Yrotation
													JOINT Model15
													{
														OFFSET 4.82751 -3.73566 -0.836518
														CHANNELS 3 Zrotation Xrotation Yrotation
														JOINT Model16
														{
															OFFSET 3.75311 -0.0582886 -0.0186467
															CHANNELS 3 Zrotation Xrotation Yrotation
															JOINT Model17
															{
																OFFSET 2.88688 0.0192337 0.0148025
																CHANNELS 3 Zrotation Xrotation Yrotation
																End Site
																{
																	OFFSET 0 0 0
																}
															}
														}
													}
													JOINT Model18
													{
														OFFSET 9.72197 -3.06458 0.238767
														CHANNELS 3 Zrotation Xrotation Yrotation
														JOINT Model19
														{
															OFFSET 4.61131 0 0
															CHANNELS 3 Zrotation Xrotation Yrotation
															JOINT Model20
															{
																OFFSET 2.8969 -7.62939e-006 0
																CHANNELS 3 Zrotation Xrotation Yrotation
																End Site
																{
																	OFFSET 0 0 0
																}
															}
														}
													}
													JOINT Model21
													{
														OFFSET 9.54431 -0.745064 0.588937
														CHANNELS 3 Zrotation Xrotation Yrotation
														JOINT Model22
														{
															OFFSET 5.33978 0 0
															CHANNELS 3 Zrotation Xrotation Yrotation
															JOINT Model23
															{
																OFFSET 3.03619 7.62939e-006 0
																CHANNELS 3 Zrotation Xrotation Yrotation
																End Site
																{
																	OFFSET 0 0 0
																}
															}
														}
													}
													JOINT Model24
													{
														OFFSET 9.47759 1.51286 0.48512
														CHANNELS 3 Zrotation Xrotation Yrotation
														JOINT Model25
														{
															OFFSET 4.96136 7.62939e-006 0
															CHANNELS 3 Zrotation Xrotation Yrotation
															JOINT Model26
															{
																OFFSET 2.51966 0 0
																CHANNELS 3 Zrotation Xrotation Yrotation
																End Site
																{
																	OFFSET 0 0 0
																}
															}
														}
													}
													JOINT Model27
													{
														OFFSET 9.34247 3.34117 -0.23928
														CHANNELS 3 Zrotation Xrotation Yrotation
														JOINT Model28
														{
															OFFSET 3.2826 2.28882e-005 0
															CHANNELS 3 Zrotation Xrotation Yrotation
															JOINT Model29
															{
																OFFSET 2.1292 0 0
																CHANNELS 3 Zrotation Xrotation Yrotation
																End Site
																{
																	OFFSET 0 0 0
																}
															}
														}
													}
												}
											}
										}
									}
								}
							}
						}
					}
					JOINT Model30
					{
						OFFSET 10.8223 0.4179 -3.51107
						CHANNELS 3 Zrotation Xrotation Yrotation
						JOINT Model31
						{
							OFFSET 6.07943 0 0
							CHANNELS 3 Zrotation Xrotation Yrotation
							JOINT Model32
							{
								OFFSET 0.277416 -10.39 0.0512447
								CHANNELS 3 Zrotation Xrotation Yrotation
								JOINT Model33
								{
									OFFSET 3.4391 0.282043 -1.86678
									CHANNELS 3 Zrotation Xrotation Yrotation
									JOINT Model34
									{
										OFFSET -13.0269 0 0
										CHANNELS 3 Zrotation Xrotation Yrotation
										JOINT Model35
										{
											OFFSET -10.8866 0 0
											CHANNELS 3 Zrotation Xrotation Yrotation
											JOINT Model36
											{
												OFFSET -16.7317 0 0
												CHANNELS 3 Zrotation Xrotation Yrotation
												JOINT Model37
												{
													OFFSET -11.8292 0 0
													CHANNELS 3 Zrotation Xrotation Yrotation
													JOINT Model38
													{
														OFFSET -4.82751 3.73566 0.836516
														CHANNELS 3 Zrotation Xrotation Yrotation
														JOINT Model39
														{
															OFFSET -3.75311 0.0582886 0.0186429
															CHANNELS 3 Zrotation Xrotation Yrotation
															JOINT Model40
															{
																OFFSET -2.88688 -0.0192337 -0.0148025
																CHANNELS 3 Zrotation Xrotation Yrotation
																End Site
																{
																	OFFSET 0 0 0
																}
															}
														}
													}
													JOINT Model41
													{
														OFFSET -9.72197 3.06459 -0.23877
														CHANNELS 3 Zrotation Xrotation Yrotation
														JOINT Model42
														{
															OFFSET -4.6113 0 0
															CHANNELS 3 Zrotation Xrotation Yrotation
															JOINT Model43
															{
																OFFSET -2.8969 0 0
																CHANNELS 3 Zrotation Xrotation Yrotation
																End Site
																{
																	OFFSET 0 0 0
																}
															}
														}
													}
													JOINT Model44
													{
														OFFSET -9.5443 0.745064 -0.588939
														CHANNELS 3 Zrotation Xrotation Yrotation
														JOINT Model45
														{
															OFFSET -5.33978 0 0
															CHANNELS 3 Zrotation Xrotation Yrotation
															JOINT Model46
															{
																OFFSET -3.03619 -1.52588e-005 0
																CHANNELS 3 Zrotation Xrotation Yrotation
																End Site
																{
																	OFFSET 0 0 0
																}
															}
														}
													}
													JOINT Model47
													{
														OFFSET -9.47759 -1.51286 -0.485122
														CHANNELS 3 Zrotation Xrotation Yrotation
														JOINT Model48
														{
															OFFSET -4.96137 -1.52588e-005 0
															CHANNELS 3 Zrotation Xrotation Yrotation
															JOINT Model49
															{
																OFFSET -2.51966 0 0
																CHANNELS 3 Zrotation Xrotation Yrotation
																End Site
																{
																	OFFSET 0 0 0
																}
															}
														}
													}
													JOINT Model50
													{
														OFFSET -9.34246 -3.34118 0.239278
														CHANNELS 3 Zrotation Xrotation Yrotation
														JOINT Model51
														{
															OFFSET -3.2826 -2.28882e-005 0
															CHANNELS 3 Zrotation Xrotation Yrotation
															JOINT Model52
															{
																OFFSET -2.1292 0 0
																CHANNELS 3 Zrotation Xrotation Yrotation
																End Site
																{
																	OFFSET 0 0 0
																}
															}
														}
													}
												}
											}
										}
									}
								}
							}
						}
					}
				}
			}
		}
	}
	JOINT Model53
	{
		OFFSET 4.38026 -2.14632 -1.11516
		CHANNELS 3 Zrotation Xrotation Yrotation
		JOINT Model54
		{
			OFFSET 0 0 4.94999
			CHANNELS 3 Zrotation Xrotation Yrotation
			JOINT Model55
			{
				OFFSET 18.5642 0 0
				CHANNELS 3 Zrotation Xrotation Yrotation
				JOINT Model56
				{
					OFFSET 21.2884 0 1.15633e-005
					CHANNELS 3 Zrotation Xrotation Yrotation
					JOINT Model57
					{
						OFFSET 30.261 0 0
						CHANNELS 3 Zrotation Xrotation Yrotation
						JOINT Model58
						{
							OFFSET 11.7259 0 0
							CHANNELS 3 Zrotation Xrotation Yrotation
							JOINT Model59
							{
								OFFSET 10.682 0 0
								CHANNELS 3 Zrotation Xrotation Yrotation
								End Site
								{
									OFFSET 0 0 0
								}
							}
						}
					}
				}
			}
		}
	}
	JOINT Model60
	{
		OFFSET -4.38026 -2.14632 -1.11516
		CHANNELS 3 Zrotation Xrotation Yrotation
		JOINT Model61
		{
			OFFSET 0 0 -4.94999
			CHANNELS 3 Zrotation Xrotation Yrotation
			JOINT Model62
			{
				OFFSET -18.5642 0 0
				CHANNELS 3 Zrotation Xrotation Yrotation
				JOINT Model63
				{
					OFFSET -21.2884 0 -1.14441e-005
					CHANNELS 3 Zrotation Xrotation Yrotation
					JOINT Model64
					{
						OFFSET -30.261 0 0
						CHANNELS 3 Zrotation Xrotation Yrotation
						JOINT Model65
						{
							OFFSET -11.7259 0 0
							CHANNELS 3 Zrotation Xrotation Yrotation
							JOINT Model66
							{
								OFFSET -10.682 0 0
								CHANNELS 3 Zrotation Xrotation Yrotation
								End Site
								{
									OFFSET 0 0 0
								}
							}
						}
					}
				}
			}
		}
	}
}
MOTION
Frames: 4
Frame Time: 0.033333
6.9997 174.094 6.36237 174.184 -79.037 175.161 -180 4.29621e-031 -90 1.60734 -0.391324 -0.129992 3.2139 -0.786576 -0.248964 3.2139 -0.78614 -0.248988 29.3603 6.90435 10.4279 -27.6098 7.35754 -1.91521 120.092 75.5343 58.4939 7.26101 14.7211 2.62456 -167.277 84.4999 48.8109 -152.467 -16.234 -49.6784 -1.49692e-005 49.019 4.8599e-005 -36.1801 -22.4677 0.390454 -4.37164e-006 -34.2664 -5.29009e-006 24.9418 -1.65407 -7.46893 -72.0648 39.0385 39.3397 33.3638 2.10362 14.835 0.588947 0.308273 6.35287 -99.6409 81.413 100.35 -0.0181409 2.77773e-005 -0.117315 -0.124139 0.00241112 -0.799296 -79.8382 79.5773 80.5374 -0.000225772 -0.000220924 2.21918e-005 -0.00095622 0.000122893 -2.73243e-005 -66.7416 80.4058 67.2171 -0.000437128 1.59442e-005 -2.73233e-005 -0.000136598 -0.000109293 -5.4645e-005 -6.42159 81.2158 8.01779 -0.000218561 1.68998e-005 0.000212138 0.00090159 -0.000184813 -0.000218569 -59.9282 75.5373 58.5147 -1.82348 1.42969 1.09492 -167.277 84.4999 48.8109 174.743 -32.1358 -36.967 1.30119e-005 -10.8005 2.74306e-005 -42.0658 16.3268 0.42422 -1.01433e-005 23.8775 5.07676e-006 29.9252 4.65208 17.2845 -72.0648 39.0385 39.3397 33.3638 2.10361 14.835 0.588946 0.308273 6.35287 -99.6409 81.413 100.35 -0.0181409 3.00752e-005 -0.117315 -0.124139 0.00241113 -0.799296 -79.8382 79.5773 80.5374 -0.000260643 -0.000218569 2.35681e-005 -0.000956222 0.000122992 -2.73238e-005 -66.7416 80.4058 67.2171 -0.000437129 1.48784e-005 -2.7323e-005 -0.0001366 -0.000109287 -5.46446e-005 -6.42159 81.2158 8.01779 -0.000218563 1.95755e-005 0.000212294 0.000901587 -0.00019125 -0.000218569 0.000811311 0.56661 89.91 -13.7919 1.94093 -2.51733 1.72553e-006 4.63083 -5.97429e-008 56.5141 -2.38551 -0.00713278 -1.09039e-007 -3.67906 -1.00557e-007 -81.6856 -3.56211 0.0362563 -35.4947 1.34737e-006 6.0843e-008 -180 -0.566579 -90.09 -13.3289 -2.31378 -4.8159 -5.84728e-008 -0.222159 -1.03351e-009 55.0163 0.36201 -0.00669481 4.01345e-007 0.443961 4.6178e-008 -83.2012 -0.253871 -1.3173 -35.4947 -2.26481e-007 3.70577e-008 
6.97356 174.095 6.38117 174.076 -79.073 175.096 -180 4.29621e-031 -90 1.58423 -0.385671 -0.0897145 3.16795 -0.774111 -0.168738 3.16795 -0.773675 -0.168762 29.6825 6.67545 9.08842 -27.5768 6.70876 -0.548268 120.092 75.5343 58.4939 6.62398 14.551 2.77197 -167.277 84.4999 48.8109 -152.919 -16.0112 -50.3993 -1.57103e-005 49.5854 4.91609e-005 -35.994 -22.7601 0.389568 -4.4207e-006 -34.7032 -5.31787e-006 24.9532 -1.68282 -7.59483 -72.0648 39.0385 39.3397 33.3638 2.10362 14.835 0.588947 0.308273 6.35287 -99.6409 81.413 100.35 -0.0181409 2.77773e-005 -0.117315 -0.124139 0.00241112 -0.799296 -79.8382 79.5773 80.5374 -0.000225772 -0.000220924 2.21918e-005 -0.00095622 0.000122893 -2.73243e-005 -66.7416 80.4058 67.2171 -0.000437128 1.59442e-005 -2.73233e-005 -0.000136598 -0.000109293 -5.4645e-005 -6.42159 81.2158 8.01779 -0.000218561 1.68998e-005 0.000212138 0.00090159 -0.000184813 -0.000218569 -59.9282 75.5373 58.5147 -1.7317 2.04592 1.27812 -167.277 84.4999 48.8109 175.351 -32.5071 -37.0313 1.30994e-005 -10.9799 2.74472e-005 -42.2124 16.3469 0.425466 -1.01461e-005 23.9065 5.0779e-006 29.9346 4.6625 17.3171 -72.0648 39.0385 39.3397 33.3638 2.10361 14.835 0.588946 0.308273 6.35287 -99.6409 81.413 100.35 -0.0181409 3.00752e-005 -0.117315 -0.124139 0.00241113 -0.799296 -79.8382 79.5773 80.5374 -0.000260643 -0.000218569 2.35681e-005 -0.000956222 0.000122992 -2.73238e-005 -66.7416 80.4058 67.2171 -0.000437129 1.48784e-005 -2.7323e-005 -0.0001366 -0.000109287 -5.46446e-005 -6.42159 81.2158 8.01779 -0.000218563 1.95755e-005 0.000212294 0.000901587 -0.00019125 -0.000218569 0.000811311 0.56661 89.91 -13.8207 1.96334 -2.54576 1.72558e-006 4.68172 -5.97473e-008 56.5288 -2.39917 -0.00711651 -1.09075e-007 -3.69958 -1.00559e-007 -81.6792 -3.65153 0.0718981 -35.4947 1.32259e-006 -1.75773e-006 -180 -0.566579 -90.09 -13.3091 -2.30463 -4.75307 -5.84733e-008 -0.248277 -1.03351e-009 54.9487 0.482254 -0.00669549 4.01199e-007 0.624417 4.61793e-008 -83.2717 -0.738639 -1.13629 -35.4947 -1.17021e-007 2.69931e-008 
6.94435 174.112 6.41007 174.017 -79.1053 175.105 -180 4.29621e-031 -90 1.59943 -0.385667 -0.0920313 3.19835 -0.774188 -0.173268 3.19835 -0.773752 -0.173292 29.3991 6.60123 9.04439 -27.2492 6.57133 -0.295727 120.092 75.5343 58.4939 7.1019 14.2296 2.55417 -167.277 84.4999 48.8109 -153.23 -15.5163 -50.1714 -1.58675e-005 49.7039 4.92807e-005 -35.8539 -22.8747 0.388593 -4.43997e-006 -34.8736 -5.32887e-006 24.8536 -1.68026 -7.61457 -72.0648 39.0385 39.3397 33.3638 2.10362 14.835 0.588947 0.308273 6.35287 -99.6409 81.413 100.35 -0.0181409 2.77773e-005 -0.117315 -0.124139 0.00241112 -0.799296 -79.8382 79.5773 80.5374 -0.000225772 -0.000220924 2.21918e-005 -0.00095622 0.000122893 -2.73243e-005 -66.7416 80.4058 67.2171 -0.000437128 1.59442e-005 -2.73233e-005 -0.000136598 -0.000109293 -5.4645e-005 -6.42159 81.2158 8.01779 -0.000218561 1.68998e-005 0.000212138 0.00090159 -0.000184813 -0.000218569 -59.9282 75.5373 58.5147 -1.89199 1.78571 1.22404 -167.277 84.4999 48.8109 174.796 -32.3002 -37.2597 1.30608e-005 -10.9007 2.74398e-005 -42.0504 16.3047 0.424046 -1.01401e-005 23.8444 5.07546e-006 29.9762 4.6517 17.2528 -72.0648 39.0385 39.3397 33.3638 2.10361 14.835 0.588946 0.308273 6.35287 -99.6409 81.413 100.35 -0.0181409 3.00752e-005 -0.117315 -0.124139 0.00241113 -0.799296 -79.8382 79.5773 80.5374 -0.000260643 -0.000218569 2.35681e-005 -0.000956222 0.000122992 -2.73238e-005 -66.7416 80.4058 67.2171 -0.000437129 1.48784e-005 -2.7323e-005 -0.0001366 -0.000109287 -5.46446e-005 -6.42159 81.2158 8.01779 -0.000218563 1.95755e-005 0.000212294 0.000901587 -0.00019125 -0.000218569 0.000811311 0.56661 89.91 -13.8085 1.97302 -2.6051 1.72564e-006 4.73517 -5.97518e-008 56.4913 -2.42194 -0.00709931 -1.09135e-007 -3.73369 -1.00563e-007 -81.6551 -3.62826 0.0643598 -35.4947 1.27996e-006 -7.08305e-006 -180 -0.566579 -90.09 -13.2511 -2.30107 -4.67512 -5.8474e-008 -0.289997 -1.03351e-009 54.831 0.533516 -0.00669321 4.01137e-007 0.70147 4.61801e-008 -83.2785 -1.02843 -1.02699 -35.4947 7.20055e-008 9.39884e-009 
6.93431 174.131 6.43677 174.298 -79.1392 175.434 -180 4.29621e-031 -90 1.62356 -0.38364 -0.0353592 3.24699 -0.768565 -0.0598362 3.24699 -0.768128 -0.059861 29.2249 6.49389 8.52409 -27.1992 6.40698 -0.0270498 120.092 75.5343 58.4939 6.94843 13.7191 2.47619 -167.277 84.4999 48.8109 -153.758 -15.1427 -50.2742 -1.59474e-005 49.764 4.93417e-005 -35.7401 -23.0206 0.387954 -4.46472e-006 -35.0913 -5.34306e-006 24.6805 -1.66626 -7.60579 -72.0648 39.0385 39.3397 33.3638 2.10362 14.835 0.588947 0.308273 6.35287 -99.6409 81.413 100.35 -0.0181409 2.77773e-005 -0.117315 -0.124139 0.00241112 -0.799296 -79.8382 79.5773 80.5374 -0.000225772 -0.000220924 2.21918e-005 -0.00095622 0.000122893 -2.73243e-005 -66.7416 80.4058 67.2171 -0.000437128 1.59442e-005 -2.73233e-005 -0.000136598 -0.000109293 -5.4645e-005 -6.42159 81.2158 8.01779 -0.000218561 1.68998e-005 0.000212138 0.00090159 -0.000184813 -0.000218569 -59.9282 75.5373 58.5147 -1.14336 1.53654 1.00227 -167.277 84.4999 48.8109 174.81 -32.0218 -36.6964 1.29616e-005 -10.6972 2.74212e-005 -41.9933 16.1257 0.423204 -1.01142e-005 23.5763 5.06504e-006 30.1602 4.63361 17.0784 -72.0648 39.0385 39.3397 33.3638 2.10361 14.835 0.588946 0.308273 6.35287 -99.6409 81.413 100.35 -0.0181409 3.00752e-005 -0.117315 -0.124139 0.00241113 -0.799296 -79.8382 79.5773 80.5374 -0.000260643 -0.000218569 2.35681e-005 -0.000956222 0.000122992 -2.73238e-005 -66.7416 80.4058 67.2171 -0.000437129 1.48784e-005 -2.7323e-005 -0.0001366 -0.000109287 -5.46446e-005 -6.42159 81.2158 8.01779 -0.000218563 1.95755e-005 0.000212294 0.000901587 -0.00019125 -0.000218569 0.000811311 0.56661 89.91 -13.7825 1.95602 -2.65593 1.72565e-006 4.74367 -5.97526e-008 56.4502 -2.45377 -0.00708124 -1.09219e-007 -3.78138 -1.00568e-007 -81.6436 -3.52315 0.0237048 -35.4947 1.22049e-006 -1.57203e-005 -180 -0.566579 -90.09 -13.2306 -2.27043 -4.59517 -5.84741e-008 -0.295168 -1.03351e-009 54.7475 0.522215 -0.00668813 4.01151e-007 0.68463 4.61799e-008 -83.2085 -1.01767 -1.02821 -35.4947 3.35917e-007 -1.52821e-008 
